<svg width="75" height="75" viewBox="0 0 75 75" fill="none" xmlns="http://www.w3.org/2000/svg">
<path d="M68.6562 57.2812C68.6562 58.4062 68.4062 59.5625 67.875 60.6875C67.3437 61.8125 66.6563 62.875 65.75 63.875C64.2188 65.5625 62.5312 66.7813 60.625 67.5625C58.75 68.3438 56.7188 68.75 54.5313 68.75C51.3438 68.75 47.9375 68 44.3437 66.4688C40.75 64.9375 37.1562 62.875 33.5938 60.2813C30 57.6563 26.5937 54.75 23.3437 51.5312C20.125 48.2812 17.2187 44.875 14.625 41.3125C12.0625 37.75 10 34.1875 8.5 30.6563C7 27.0938 6.25 23.6875 6.25 20.4375C6.25 18.3125 6.625 16.2813 7.375 14.4063C8.125 12.5 9.3125 10.75 10.9687 9.1875C12.9687 7.21875 15.1563 6.25 17.4688 6.25C18.3438 6.25 19.2188 6.4375 20 6.8125C20.8125 7.1875 21.5313 7.75 22.0938 8.5625L29.3438 18.7813C29.9063 19.5625 30.3125 20.2813 30.5937 20.9688C30.875 21.625 31.0313 22.2813 31.0313 22.875C31.0313 23.625 30.8125 24.375 30.375 25.0937C29.9688 25.8125 29.375 26.5625 28.625 27.3125L26.25 29.7812C25.9062 30.125 25.75 30.5313 25.75 31.0313C25.75 31.2813 25.7813 31.5 25.8438 31.75C25.9375 32 26.0313 32.1875 26.0938 32.375C26.6563 33.4062 27.625 34.75 29 36.375C30.4062 38 31.9062 39.6563 33.5312 41.3125C35.2187 42.9688 36.8437 44.5 38.5 45.9062C40.125 47.2812 41.4687 48.2187 42.5312 48.7812C42.6875 48.8437 42.875 48.9375 43.0937 49.0312C43.3437 49.125 43.5937 49.1562 43.875 49.1562C44.4062 49.1562 44.8125 48.9688 45.1562 48.625L47.5313 46.2813C48.3125 45.5 49.0625 44.9062 49.7813 44.5312C50.5 44.0937 51.2187 43.875 52 43.875C52.5937 43.875 53.2188 44 53.9062 44.2813C54.5937 44.5625 55.3125 44.9688 56.0938 45.5L66.4375 52.8437C67.25 53.4062 67.8125 54.0625 68.1562 54.8437C68.4687 55.625 68.6562 56.4062 68.6562 57.2812Z" stroke="#292D32" stroke-width="1.5" stroke-miterlimit="10"/>
<path d="M57.8125 28.125C57.8125 26.25 56.3437 23.375 54.1562 21.0313C52.1562 18.875 49.5 17.1875 46.875 17.1875" stroke="#292D32" stroke-width="1.5" stroke-linecap="round" stroke-linejoin="round"/>
<path d="M68.75 28.125C68.75 16.0313 58.9687 6.25 46.875 6.25" stroke="#292D32" stroke-width="1.5" stroke-linecap="round" stroke-linejoin="round"/>
</svg>
