<?xml version="1.0" standalone="no"?>
<!DOCTYPE svg PUBLIC "-//W3C//DTD SVG 20010904//EN"
 "http://www.w3.org/TR/2001/REC-SVG-20010904/DTD/svg10.dtd">
<svg version="1.0" xmlns="http://www.w3.org/2000/svg"
 width="172.000000pt" height="148.000000pt" viewBox="0 0 172.000000 148.000000"
 preserveAspectRatio="xMidYMid meet">
<metadata>
Created by potrace 1.10, written by Peter Selinger 2001-2011
</metadata>
<g transform="translate(0.000000,148.000000) scale(0.100000,-0.100000)"
fill="#000000" stroke="none">
<path d="M846 1209 c-28 -22 -33 -53 -14 -93 9 -21 8 -29 -6 -45 -9 -10 -29
-21 -44 -24 -45 -10 -61 -29 -81 -102 -11 -38 -28 -75 -37 -82 -10 -7 -27 -32
-39 -55 -16 -34 -32 -49 -79 -73 -64 -32 -83 -55 -46 -55 21 0 22 -1 6 -25
-22 -33 -20 -52 4 -60 40 -13 74 4 104 50 15 25 46 67 67 93 22 26 48 66 59
90 40 89 48 37 24 -153 -7 -55 19 -314 42 -415 8 -36 15 -76 15 -90 2 -77 10
-99 47 -120 l36 -22 18 22 c13 16 16 32 12 64 -4 30 2 73 24 151 41 151 69
389 54 457 -14 58 -16 148 -4 148 5 0 19 -23 33 -51 13 -29 43 -68 67 -89 25
-20 56 -59 71 -85 27 -51 41 -58 80 -44 23 9 24 18 6 61 -4 10 -2 15 7 15 33
-4 18 20 -27 44 -37 18 -56 37 -73 69 -13 24 -36 58 -52 77 -16 18 -34 52 -40
75 -19 72 -33 92 -73 103 -54 15 -73 38 -59 70 18 38 15 72 -8 95 -26 26 -60
25 -94 -1z m70 -7 c18 -11 26 -62 13 -78 -25 -30 -89 -6 -89 34 0 38 45 65 76
44z m-25 -156 c0 -6 7 3 14 19 10 20 14 24 15 12 0 -22 -17 -57 -29 -57 -5 0
-11 10 -14 22 -5 18 -8 19 -21 9 -14 -12 -13 -16 10 -33 23 -19 26 -19 43 -4
10 9 24 16 32 17 10 0 10 2 2 6 -7 2 -13 9 -13 14 0 7 34 -6 100 -40 8 -5 17
-19 19 -32 3 -23 2 -23 -16 -6 -22 19 -38 23 -28 6 10 -16 -25 -49 -52 -49
-13 0 -33 5 -43 10 -14 7 -25 7 -39 -2 -26 -16 -72 -1 -87 29 -9 20 -12 21
-26 6 -22 -21 -38 -13 -27 15 5 12 21 27 36 33 64 26 93 44 93 59 1 12 4 11
15 -4 8 -11 15 -25 16 -30z m-131 -115 c0 -29 -11 -52 -22 -45 -5 3 -8 -2 -6
-12 2 -13 -3 -19 -16 -19 -11 0 -21 -6 -24 -14 -2 -8 0 -11 5 -8 6 4 9 -5 7
-21 -3 -27 -66 -92 -90 -92 -7 0 -10 -8 -7 -20 7 -26 -13 -50 -43 -50 -12 0
-30 -10 -38 -22 -9 -12 -16 -17 -16 -11 0 6 12 25 26 42 l26 31 -34 1 c-30 1
-29 2 21 18 50 17 56 22 82 74 16 31 35 59 42 64 8 4 24 29 35 56 21 48 52 64
52 28z m305 -11 c16 -32 20 -70 7 -70 -5 0 -17 10 -28 22 -10 12 -13 18 -5 13
9 -5 8 1 -4 18 -16 25 -14 47 5 47 5 0 16 -13 25 -30z m-98 -14 c20 -10 20
-13 7 -36 l-15 -25 4 27 c3 22 1 25 -13 16 -11 -7 -23 -8 -35 -1 -12 7 -26 6
-47 -4 -23 -12 -32 -12 -44 -3 -12 11 -13 10 -8 -6 4 -15 4 -16 -4 -5 -14 20
-3 41 22 41 11 0 28 4 36 9 16 11 63 4 97 -13z m-19 -65 c-2 -9 -13 -17 -26
-19 -19 -3 -22 1 -22 27 0 29 1 30 25 19 15 -7 24 -18 23 -27z m-58 4 c0 -20
-5 -25 -24 -25 -25 0 -43 35 -22 44 30 12 46 5 46 -19z m231 -11 c8 -9 25 -37
39 -62 21 -38 33 -49 75 -63 31 -11 42 -18 28 -18 -27 -1 -29 -10 -8 -37 17
-22 20 -38 5 -29 -5 3 -10 0 -11 -7 0 -10 -2 -10 -6 0 -2 6 -9 10 -14 6 -5 -3
-9 0 -9 6 0 7 7 10 15 6 8 -3 15 -1 15 4 0 16 -30 11 -37 -6 -4 -11 -11 -3
-24 26 -11 23 -16 46 -13 51 3 5 -1 9 -8 9 -19 0 -84 69 -93 97 -5 19 -3 22
11 16 12 -4 15 -3 10 5 -11 18 10 14 25 -4z m-276 -94 l6 -25 -21 25 c-20 26
-25 55 -13 87 5 14 9 8 15 -22 4 -22 10 -51 13 -65z m132 32 c-3 -9 -8 -25
-12 -35 -6 -14 -4 -16 10 -10 17 6 18 -2 12 -115 -6 -119 -22 -202 -39 -202
-13 0 -9 23 7 44 8 11 15 29 14 40 0 15 -4 10 -13 -13 -16 -46 -23 -32 -31 64
-6 66 -4 88 11 120 10 24 16 59 15 87 -3 55 7 80 21 53 6 -9 8 -24 5 -33z
m-88 21 c10 -17 10 -17 11 0 0 10 8 17 20 17 16 0 20 -7 20 -37 0 -41 -18 -84
-37 -90 -18 -6 -53 57 -53 95 0 36 22 44 39 15z m-37 -110 c32 -47 36 -59 42
-150 4 -55 4 -112 0 -129 l-8 -29 -7 30 c-4 20 -7 4 -7 -45 0 -41 4 -86 9
-100 5 -17 7 -3 3 40 -4 47 -2 61 5 50 6 -8 11 -55 10 -105 0 -50 5 -108 10
-130 12 -46 2 -62 -28 -46 -18 10 -21 21 -21 74 0 40 -7 77 -21 106 -16 36
-19 62 -17 127 2 45 6 80 11 77 4 -2 7 -15 7 -28 0 -13 4 -26 9 -29 16 -10 -2
49 -25 79 -36 48 -51 190 -28 264 6 17 10 12 56 -56z m-268 -58 c-4 -8 -10
-15 -16 -15 -5 0 -6 6 -2 13 5 8 2 7 -9 -2 -19 -15 -33 -9 -22 8 3 6 17 11 30
11 18 0 23 -4 19 -15z m382 -252 c-2 -10 -12 -47 -21 -82 -8 -36 -18 -67 -20
-70 -12 -12 -15 10 -6 50 6 24 11 61 11 82 0 31 3 37 21 37 15 0 19 -5 15 -17z"/>
</g>
</svg>
