<svg width="75" height="75" viewBox="0 0 75 75" fill="none" xmlns="http://www.w3.org/2000/svg">
<path opacity="0.4" d="M50.5937 7.28125H24.4375C13.0625 7.28125 6.28125 14.0625 6.28125 25.4375V51.5938C6.28125 62.9688 13.0625 69.75 24.4375 69.75H50.5937C61.9687 69.75 68.75 62.9688 68.75 51.5938V25.4687C68.75 14.0937 61.9687 7.28125 50.5937 7.28125Z" fill="#292D32"/>
<path d="M51.25 25.6563L39.5001 19.3125C38.2501 18.6563 36.7813 18.6563 35.5313 19.3125L23.7812 25.6563C22.9375 26.125 22.4063 27.0312 22.4063 28.0625C22.4063 29.0938 22.9375 30 23.7812 30.4688L35.5313 36.8125C36.1563 37.1563 36.8438 37.3125 37.5313 37.3125C38.2188 37.3125 38.9062 37.1563 39.5312 36.8125L51.2813 30.4688C52.125 30 52.6563 29.0938 52.6563 28.0625C52.625 27.0312 52.0938 26.125 51.25 25.6563Z" fill="#292D32"/>
<path d="M33.5625 38.9688L22.625 33.5001C21.7812 33.0938 20.8125 33.1251 20 33.6251C19.1875 34.1251 18.7188 34.9688 18.7188 35.9063V46.2501C18.7188 48.0313 19.7188 49.6563 21.3126 50.4376L32.2501 55.9063C32.6251 56.0938 33.0313 56.1876 33.4688 56.1876C33.9688 56.1876 34.4375 56.0626 34.875 55.7813C35.6875 55.2813 36.1563 54.4376 36.1563 53.5001V43.1563C36.1563 41.3751 35.1875 39.7813 33.5625 38.9688Z" fill="#292D32"/>
<path d="M54.9688 33.6251C54.1563 33.1251 53.1875 33.0938 52.3438 33.5001L41.4063 38.9688C39.8125 39.7813 38.8126 41.3751 38.8126 43.1563V53.5001C38.8126 54.4376 39.2812 55.2813 40.0937 55.7813C40.5312 56.0626 41 56.1876 41.5 56.1876C41.9063 56.1876 42.3126 56.0938 42.7188 55.9063L53.6563 50.4376C55.2501 49.6251 56.25 48.0313 56.25 46.2501V35.9063C56.25 34.9688 55.7813 34.1251 54.9688 33.6251Z" fill="#292D32"/>
</svg>
